<svg xmlns="http://www.w3.org/2000/svg" viewBox="0 0 132.07 116.52">
    <defs>
        <style>
            .a {
                fill: white;
            }

            .b {
                fill: none;
            }
        </style>
    </defs>
    <title>L'oven Logo</title>
    <path class="a" d="M474.07,462a12.65,12.65,0,0,1,1.66,2.72,14.44,14.44,0,0,1,1,3.34,11.59,11.59,0,0,1,.16,2.8,12.55,12.55,0,0,1-.5,2.81,11.87,11.87,0,0,1-1.13,2.62,9.59,9.59,0,0,1-4.15,3.83,8.91,8.91,0,0,1-2.94.82,8.54,8.54,0,0,1-4.12-.46,9,9,0,0,1-3.12-2,10.77,10.77,0,0,1-2.13-3.08,14.9,14.9,0,0,1-1.16-3.62,14.41,14.41,0,0,1-.09-5.39,10.21,10.21,0,0,1,5.27-7.16,13.48,13.48,0,0,1,5.09-1.52,16,16,0,0,1,4.81.17,20.28,20.28,0,0,1,4.42,1.38,18.77,18.77,0,0,1,4.08,2.5q2,1.56,3.67,3l.1,3.33a16.12,16.12,0,0,0-2.25-1.6q-1.39-.84-3-1.88a23.54,23.54,0,0,0-3-1.72q-1.47-.68-2.51-1.13Zm-5.68,14.36a2.34,2.34,0,0,0,1.59-1,6.94,6.94,0,0,0,1.1-2.19,11.63,11.63,0,0,0,.48-3.07,14.52,14.52,0,0,0-.18-3.12,10.58,10.58,0,0,0-.55-2,6.13,6.13,0,0,0-.84-1.53,3.4,3.4,0,0,0-1.14-1,2.55,2.55,0,0,0-1.47-.24,3,3,0,0,0-1.9,1,7.08,7.08,0,0,0-1.33,2.27,11.15,11.15,0,0,0-.65,2.93,13.16,13.16,0,0,0,.21,3.51,8.18,8.18,0,0,0,.54,1.81,4.86,4.86,0,0,0,.93,1.43,3.61,3.61,0,0,0,1.37.89A3.93,3.93,0,0,0,468.39,476.39Z" transform="translate(-427.7 -396.9)"/><path class="a" d="M482.14,468.15q-.42-1.73-.75-3l-.6-2.32q-.27-1-.47-1.92t-.38-1.81a26.08,26.08,0,0,1-.59-4.45q0-1.37.88-1.59l3.26-.85.24-.08.28,0a1.35,1.35,0,0,1,1.13.34,2,2,0,0,1,.59,1l2.49,15.46.17,0,4.17-16.35a1.4,1.4,0,0,1,.22-.67,2.12,2.12,0,0,1,.58-.6,4.29,4.29,0,0,1,.86-.47,4.08,4.08,0,0,1,1.06-.27,5,5,0,0,1,2.55.25A1.8,1.8,0,0,1,499,452a3.59,3.59,0,0,1,0,1.26,5.71,5.71,0,0,1-.28,1.34q-.45,1.27-.55,1.61-.7,2.65-.78,3.06t-.15.9a6.46,6.46,0,0,0-.05.92,5.77,5.77,0,0,0,.11,1,4,4,0,0,0,.37,1.07,2.7,2.7,0,0,0,.74.9,3,3,0,0,0,1.21.56,5.25,5.25,0,0,0,1.81,0,5.43,5.43,0,0,0,1.76-.58,14.94,14.94,0,0,0,1.8-1.06q1-.66,2-1.47l2.45,4.51a35.91,35.91,0,0,1-4.68,2.94,11.42,11.42,0,0,1-3.42,1,8.06,8.06,0,0,1-2.61-.08,6.47,6.47,0,0,1-2.09-.81,5.59,5.59,0,0,1-1.49-1.32,4.11,4.11,0,0,1-.79-1.64q-.49,1.49-1.18,3.06a23,23,0,0,1-1.5,2.89,12.14,12.14,0,0,1-1.68,2.19,3,3,0,0,1-1.71,1,4.31,4.31,0,0,1-2.65-.38,4.66,4.66,0,0,1-1.67-1.57,8.72,8.72,0,0,1-1-2.21q-.36-1.22-.66-2.32Z" transform="translate(-427.7 -396.9)"/><path class="a" d="M513.75,467.41a11.09,11.09,0,0,1-4.45-.33,9.77,9.77,0,0,1-3.46-1.83,10,10,0,0,1-2.42-2.94,12.2,12.2,0,0,1-1.3-3.68,10.6,10.6,0,0,1,0-3.13,31.16,31.16,0,0,1,.56-3.28,13.13,13.13,0,0,1,1-2.79,9.9,9.9,0,0,1,1.68-2.43,9,9,0,0,1,2.39-1.81,9.5,9.5,0,0,1,6-.81,7.52,7.52,0,0,1,2.41.93A6,6,0,0,1,518,447a5.73,5.73,0,0,1,1,2.33,6,6,0,0,1-.49,3.28,11.78,11.78,0,0,1-1.95,3.28,14.34,14.34,0,0,1-3,2.6,18.48,18.48,0,0,1-4,2,8.17,8.17,0,0,0,1,.94,3.78,3.78,0,0,0,.9.55,3.1,3.1,0,0,0,.89.23,4.71,4.71,0,0,0,1,0,10.81,10.81,0,0,0,3.23-.91,21.64,21.64,0,0,0,3.16-1.74,27,27,0,0,0,2.81-2.13q1.07-.93,1.84-1.75a4.78,4.78,0,0,1,1.74-1.5l2.53,3.82a31,31,0,0,1-4.22,4.4q-1,.84-2.18,1.68a21.45,21.45,0,0,1-2.51,1.54,19.21,19.21,0,0,1-2.82,1.19A14.82,14.82,0,0,1,513.75,467.41Zm-5.53-10.69a5.7,5.7,0,0,0,2-.65,9,9,0,0,0,1.89-1.31,8.55,8.55,0,0,0,1.57-2,3.05,3.05,0,0,0,.59-1.94,3.23,3.23,0,0,0-.74-1.63,1.38,1.38,0,0,0-1.19-.54,4.51,4.51,0,0,0-1.88.58,3.8,3.8,0,0,0-1.17,1.09,4.41,4.41,0,0,0-.63,1.42q-.2.78-.43,1.91a6.25,6.25,0,0,0-.16,1.85Q508.13,456.23,508.22,456.73Z" transform="translate(-427.7 -396.9)"/><path class="b" d="M493.3,403.47A11.65,11.65,0,0,0,488,405.6a3.83,3.83,0,0,0-1,3c.13,2.54.33,7.52.2,12.4,0,1.5,1.13,1.65,1.56.2a160.67,160.67,0,0,1,5.63-15.51C494.74,404.61,494,403.36,493.3,403.47Z" transform="translate(-427.7 -396.9)"/><path class="b" d="M446.94,452.28c-6.25-1.23-12.73,4-13.52,9.9-.23,1.68-.75,4.22,1.16,5a6.3,6.3,0,0,0,5.76-1.09,64.62,64.62,0,0,0,7.61-9C450.23,454,448.55,452.63,446.94,452.28Z" transform="translate(-427.7 -396.9)"/><path class="b" d="M467.09,424.08a13.41,13.41,0,0,0,7.51-9.44,1.52,1.52,0,0,0-2.26-1.59,18.29,18.29,0,0,0-7.36,9.17A1.52,1.52,0,0,0,467.09,424.08Z" transform="translate(-427.7 -396.9)"/><path class="b" d="M471,421.37l-.27.24Z" transform="translate(-427.7 -396.9)"/><path class="b" d="M465,423.25a1.51,1.51,0,0,0,.4.59A1.51,1.51,0,0,1,465,423.25Z" transform="translate(-427.7 -396.9)"/><path class="b" d="M472,420.22l-.19.21Z" transform="translate(-427.7 -396.9)"/><path class="b" d="M466.18,424.21l-.05,0Z" transform="translate(-427.7 -396.9)"/><path class="b" d="M469.8,422.4h0Z" transform="translate(-427.7 -396.9)"/><path class="b" d="M469.29,415.48c.26-.26.52-.53.79-.77C469.8,415,469.54,415.22,469.29,415.48Z" transform="translate(-427.7 -396.9)"/><path class="b" d="M468.26,416.62c.25-.3.5-.6.76-.88C468.76,416,468.5,416.32,468.26,416.62Z" transform="translate(-427.7 -396.9)"/><path class="b" d="M471.14,413.85l0,0Z" transform="translate(-427.7 -396.9)"/><path class="b" d="M466.34,419.36a19.6,19.6,0,0,1,1.69-2.48A19.6,19.6,0,0,0,466.34,419.36Z" transform="translate(-427.7 -396.9)"/><path class="b" d="M466.12,419.76c.06-.11.11-.23.18-.34C466.24,419.53,466.19,419.65,466.12,419.76Z" transform="translate(-427.7 -396.9)"/><path class="b" d="M472.34,413.05l-.31.21.31-.21Z" transform="translate(-427.7 -396.9)"/><path class="b" d="M434.58,467.2a6.3,6.3,0,0,0,5.76-1.09C439.05,467.28,436.36,467.63,434.58,467.2Z" transform="translate(-427.7 -396.9)"/><path class="b" d="M464.91,422.89a1.33,1.33,0,0,1,0-.2A1.34,1.34,0,0,0,464.91,422.89Z" transform="translate(-427.7 -396.9)"/><path class="b" d="M433.42,462.17c-.22,1.61-.68,4,.95,4.89C433.7,466.44,433.22,463.7,433.42,462.17Z" transform="translate(-427.7 -396.9)"/><path class="b" d="M446.94,452.28c-6.25-1.23-12.73,4-13.52,9.9-.21,1.53.27,4.26.95,4.89a2,2,0,0,0,.21.13c1.77.43,4.47.08,5.76-1.09a64.62,64.62,0,0,0,7.61-9C450.23,454,448.55,452.63,446.94,452.28Z" transform="translate(-427.7 -396.9)"/><path class="b" d="M465,423.25a1.51,1.51,0,0,0,.4.59,1.57,1.57,0,0,0,.72.35l.05,0a1.54,1.54,0,0,0,.91-.13,14.26,14.26,0,0,0,2.7-1.67h0c.31-.25.6-.52.89-.79l.27-.24c.3-.3.57-.61.84-.94l.19-.21a13.32,13.32,0,0,0,2.61-5.58,1.52,1.52,0,0,0-2.26-1.59l-.31.21c-.28.18-.57.36-.85.56l0,0c-.36.27-.72.56-1.07.87s-.53.5-.79.77l-.27.26c-.26.28-.51.58-.76.88l-.22.26a19.6,19.6,0,0,0-1.69,2.48l0,.06c-.06.11-.12.23-.18.34a19.12,19.12,0,0,0-1.14,2.46,1.5,1.5,0,0,0-.1.47,1.33,1.33,0,0,0,0,.2A1.39,1.39,0,0,0,465,423.25Z" transform="translate(-427.7 -396.9)"/><path class="b" d="M473.6,477.28a1.52,1.52,0,0,0,2.91.85l.05-.19C477,476,474.09,475.39,473.6,477.28Z" transform="translate(-427.7 -396.9)"/><path class="a" d="M468,428c5.88-3.91,11.07-7.88,11.52-15.85a7.63,7.63,0,0,0-2.51-5.79c-1.14-.82-3.58-.69-5.55.89-4.65,3.56-7.63,6.75-10.13,12.61-2.34,5.48-.45,7.07-11.53,7.49h0a21.09,21.09,0,0,0-3.94.17c-2,.35-2.12.18-2.84,1a3.29,3.29,0,0,0,.31,2.84,4.45,4.45,0,0,0,3,1.28,65.88,65.88,0,0,0,8.41-.56,1.53,1.53,0,0,1,1.61,2L452,447.72a1.39,1.39,0,0,1-1.36,1c-3.91-.09-7.41-.76-10.3.28a20.08,20.08,0,0,0-12.23,13.1c-1.08,3.43-.25,7.3,4.35,9.42,5.63,2.59,9.19-.45,12.62-4,1.78-1.86,3.42-3.86,5.16-5.94a1.54,1.54,0,0,1,2.58.36c2.07,4.66,3.85,8.83,5.87,12.9a12.52,12.52,0,0,0,3.11,4.39l2.37-4.92a1.52,1.52,0,0,1-.29-.43c-2.21-5.21-4.62-9.84-5.6-14.76-1.86-9.34.6-18.49,3.94-27.23C462.88,430.14,466.22,429.17,468,428Zm-3-5.78a19.11,19.11,0,0,1,1.14-2.46c.06-.11.11-.23.18-.34l0-.06a19.6,19.6,0,0,1,1.69-2.48l.22-.26c.25-.3.5-.6.76-.88l.27-.26c.26-.26.52-.53.79-.77s.71-.6,1.07-.87l0,0c.28-.2.56-.38.85-.56l.31-.21h0a1.52,1.52,0,0,1,2.26,1.59,13.32,13.32,0,0,1-2.61,5.58l-.19.21c-.27.32-.54.64-.84.94l-.27.24c-.29.27-.58.54-.89.79h0a14.27,14.27,0,0,1-2.7,1.67,1.54,1.54,0,0,1-.91.13l-.05,0a1.57,1.57,0,0,1-.72-.35,1.51,1.51,0,0,1-.4-.59,1.39,1.39,0,0,1-.08-.36,1.34,1.34,0,0,1,0-.2A1.5,1.5,0,0,1,465,422.22Zm-17,34.85a64.62,64.62,0,0,1-7.61,9,6.3,6.3,0,0,1-5.76,1.09.5.5,0,0,1-.21-.13c-1.63-.91-1.17-3.28-.95-4.89.79-5.87,7.27-11.13,13.52-9.9C448.55,452.63,450.23,454,447.95,457.07Z" transform="translate(-427.7 -396.9)"/><path class="a" d="M434.58,467.2a2,2,0,0,1-.21-.13A.5.5,0,0,0,434.58,467.2Z" transform="translate(-427.7 -396.9)"/><path class="a" d="M468,416.88l.22-.26Z" transform="translate(-427.7 -396.9)"/><path class="a" d="M466.3,419.42l0-.06Z" transform="translate(-427.7 -396.9)"/><path class="a" d="M470.07,414.72c.35-.31.71-.6,1.07-.87C470.78,414.12,470.42,414.41,470.07,414.72Z" transform="translate(-427.7 -396.9)"/><path d="M469,415.74l.27-.26Z" transform="translate(-427.7 -396.9)"/><path class="a" d="M466.12,419.76a19.11,19.11,0,0,0-1.14,2.46,1.5,1.5,0,0,0-.1.47,1.5,1.5,0,0,1,.1-.47A19.12,19.12,0,0,1,466.12,419.76Z" transform="translate(-427.7 -396.9)"/><path class="a" d="M471.19,413.81c.28-.2.56-.38.85-.56C471.75,413.43,471.46,413.61,471.19,413.81Z" transform="translate(-427.7 -396.9)"/><path class="a" d="M465,423.25a1.39,1.39,0,0,1-.08-.36A1.39,1.39,0,0,0,465,423.25Z" transform="translate(-427.7 -396.9)"/><path class="a" d="M474.6,414.64a13.32,13.32,0,0,1-2.61,5.58,13.32,13.32,0,0,0,2.61-5.58,1.52,1.52,0,0,0-2.26-1.59h0A1.52,1.52,0,0,1,474.6,414.64Z" transform="translate(-427.7 -396.9)"/><path class="a" d="M466.13,424.19a1.57,1.57,0,0,1-.72-.35A1.57,1.57,0,0,0,466.13,424.19Z" transform="translate(-427.7 -396.9)"/><path class="a" d="M471.8,420.43c-.27.32-.54.64-.84.94C471.26,421.07,471.54,420.75,471.8,420.43Z" transform="translate(-427.7 -396.9)"/><path class="a" d="M466.18,424.21a1.54,1.54,0,0,0,.91-.13,14.27,14.27,0,0,0,2.7-1.67,14.26,14.26,0,0,1-2.7,1.67A1.54,1.54,0,0,1,466.18,424.21Z" transform="translate(-427.7 -396.9)"/><path class="a" d="M470.69,421.61c-.29.27-.58.54-.89.79C470.11,422.15,470.4,421.88,470.69,421.61Z" transform="translate(-427.7 -396.9)"/><path class="a" d="M543,469.11a6.3,6.3,0,0,1-.85-2.33,16.87,16.87,0,0,1-.23-1.9q-.07-1-.08-2.1t0-2.42q0-1.35,0-2.21t0-1.47a5.11,5.11,0,0,0,0-.87,4.58,4.58,0,0,0-1.28-2.61,2.77,2.77,0,0,0-2.29-.75,5.81,5.81,0,0,0-2.33.73,4.12,4.12,0,0,0-1.62,1.93l-.4.92q-.27.62-.57,1.43t-.68,1.69a12.39,12.39,0,0,0-.62,2,12.4,12.4,0,0,1-.49,1.73l-.35.88-.53.06a4.79,4.79,0,0,1,0-.65q0-.48-.07-1.46t-.07-1.75c0-.51,0-1,0-1.49s0-.92,0-1.32a7.69,7.69,0,0,0-.1-1,3.72,3.72,0,0,0-.93-2,2.48,2.48,0,0,0-2.13-.55,3.14,3.14,0,0,0-2.13,1,3.28,3.28,0,0,0-.8,1.91q-.12,1.41-.16,3.39t.09,4.42q.12,2.44.29,4.48a34.85,34.85,0,0,0,.44,3.57,13.88,13.88,0,0,0,.45,1.79,5.15,5.15,0,0,0,.76,1.51,3.1,3.1,0,0,0,1.22,1,3.46,3.46,0,0,0,1.82.22,3.09,3.09,0,0,0,1.47-.52,2.85,2.85,0,0,0,1-1.43l4.71-12.85.42,0q0,1.9.11,3.54a23.54,23.54,0,0,0,.34,3,12.53,12.53,0,0,0,2,5.3,3.18,3.18,0,0,0,2.79,1.58h0c1-.11,2.09.32,2.19-.56l-.09-3.49c.07-.66.93-.66.35-1.11A16,16,0,0,1,543,469.11Z" transform="translate(-427.7 -396.9)"/><path class="a" d="M551.29,466.07c1.94-11-4.72-.83-4.72-.83s-1.19,4.28-3.52,3.88c-1.2-.21-1.41,1.49-1.33,3.19l-1.38,2.62s1.29,1.31,4.05.51C546.68,475,550.05,473.1,551.29,466.07Z" transform="translate(-427.7 -396.9)"/><path class="a" d="M552.81,458.28c2-17.16-.93-34.73-10.27-46.7-3.94-5.06-12.33-9.6-19-11.7-12.19-3.84-23.07-3.81-35.23-.83-1,.24-2,.53-3,.85a3.69,3.69,0,0,0-2.42,4.78c2.21,5.82.63,12.23,2,18.49a3,3,0,0,0,5.06,1.34c.82-.85,2.79-8,3.13-9,2.05-5.76,1.37-3.87,2.06-5.63,1.79-4.59,2.45-7.77,7.38-7.9.79,0,4.82.05,6.05.08l.45,0c7.87.81,8.15.1,14.1,2.34,9.64,3.64,12.48,6.12,16.17,10,7.74,8.13,13.44,30.19,7.23,50.77h0l4.72.83A53.64,53.64,0,0,0,552.81,458.28Zm-64.59-42.81a27.35,27.35,0,0,1-.58-7.47,4.81,4.81,0,0,1,.92-2.75,2.26,2.26,0,0,1,2-1.09,1.58,1.58,0,0,1,.9.52,3.23,3.23,0,0,1,.72,3.21C491.26,411,489,418,488.22,415.47Z" transform="translate(-427.7 -396.9)"/><path class="a" d="M433.22,501.53l0,0a4.65,4.65,0,1,1-1.36,3.29v-8a.66.66,0,0,1,1.33,0Zm3.32,6.57a3.32,3.32,0,1,0-2.35-1A3.2,3.2,0,0,0,436.54,508.11Z" transform="translate(-427.7 -396.9)"/><path class="a" d="M457.43,508a4.53,4.53,0,0,1-3.32,1.39,4.65,4.65,0,1,1,4.65-4.65v4a.66.66,0,0,1-1.33,0Zm-3.32-6.57a3.32,3.32,0,1,0,2.35,1A3.2,3.2,0,0,0,454.1,501.46Z" transform="translate(-427.7 -396.9)"/><path class="a" d="M468.35,503.89l5.62-3.65a.65.65,0,0,1,.36-.1.67.67,0,0,1,.66.66.63.63,0,0,1-.19.46l-.09.08-3.85,2.51,4,4.45a.67.67,0,0,1,.18.46.67.67,0,0,1-.66.66.67.67,0,0,1-.48-.2l-4.13-4.65-1.37.89v3.29a.66.66,0,0,1-1.33,0v-12a.66.66,0,0,1,1.33,0Z" transform="translate(-427.7 -396.9)"/><path class="a" d="M489.92,507.18a.67.67,0,0,1,.66.66.66.66,0,0,1-.19.47,4.65,4.65,0,1,1,1.62-3.53.67.67,0,0,1-.66.66h-7.25a3.33,3.33,0,0,0,3.26,2.66,3.13,3.13,0,0,0,2.14-.79A.66.66,0,0,1,489.92,507.18Zm.71-3.05a3.33,3.33,0,0,0-6.52,0Z" transform="translate(-427.7 -396.9)"/><path class="a" d="M501.92,504.79a2.93,2.93,0,0,1-1.05-.59,1.9,1.9,0,0,1-.59-1.4,2,2,0,0,1,.61-1.44,4.17,4.17,0,0,1,3.12-1.22,4.62,4.62,0,0,1,3.57,1.67.55.55,0,0,1,.13.39.67.67,0,0,1-.66.66.58.58,0,0,1-.44-.17l-.24-.25a3.2,3.2,0,0,0-2.35-1,2.9,2.9,0,0,0-2.2.86.87.87,0,0,0-.2.57.57.57,0,0,0,.41.53l4.08,1.35a2.93,2.93,0,0,1,1.05.59,1.89,1.89,0,0,1,.59,1.4,2,2,0,0,1-.61,1.44,4.17,4.17,0,0,1-3.12,1.22,4.6,4.6,0,0,1-3.57-1.67.66.66,0,0,1-.12-.39.67.67,0,0,1,.66-.66.58.58,0,0,1,.44.17l.24.25a3.2,3.2,0,0,0,2.35,1,2.9,2.9,0,0,0,2.2-.86.87.87,0,0,0,.2-.57.57.57,0,0,0-.41-.53Z" transform="translate(-427.7 -396.9)"/><path class="a" d="M516,496.82a.66.66,0,0,1,1.33,0v4.52a4.32,4.32,0,0,1,7.3,3.11v4.32a.66.66,0,0,1-1.33,0v-4.32a3,3,0,0,0-6,0v4.32a.66.66,0,0,1-1.33,0Z" transform="translate(-427.7 -396.9)"/><path class="a" d="M542.21,504.79a4.65,4.65,0,1,1-1.36-3.29A4.48,4.48,0,0,1,542.21,504.79Zm-4.65-3.32a3.32,3.32,0,1,0,2.35,1A3.2,3.2,0,0,0,537.56,501.46Z" transform="translate(-427.7 -396.9)"/><path class="a" d="M551.8,512.75a.66.66,0,0,1-1.33,0v-8a4.65,4.65,0,1,1,1.36,3.29l0,0Zm0-8a3.32,3.32,0,1,0,1-2.35A3.21,3.21,0,0,0,551.8,504.79Z" transform="translate(-427.7 -396.9)"/><rect class="a" x="4.19" y="91.5" width="127.87" height="2.01"/>
</svg>
